<?xml version="1.0" encoding="UTF-8" standalone="no"?>
<svg
   viewBox="0 0 600 600"
   version="1.1"
   id="svg866"
   sodipodi:docname="test-test-test.svg"
   inkscape:version="1.1.1 (c3084ef, 2021-09-22)"
   width="600"
   height="600"
   xmlns:inkscape="http://www.inkscape.org/namespaces/inkscape"
   xmlns:sodipodi="http://sodipodi.sourceforge.net/DTD/sodipodi-0.dtd"
   xmlns="http://www.w3.org/2000/svg"
   xmlns:svg="http://www.w3.org/2000/svg">
  <defs
     id="defs870">
    <inkscape:path-effect
       effect="powerclip"
       id="path-effect1843"
       is_visible="true"
       lpeversion="1"
       inverse="true"
       flatten="false"
       hide_clip="false"
       message="Use fill-rule evenodd on &lt;b&gt;fill and stroke&lt;/b&gt; dialog if no flatten result after convert clip to paths." />
    <inkscape:path-effect
       effect="powerclip"
       id="path-effect1889"
       is_visible="true"
       lpeversion="1"
       inverse="true"
       flatten="false"
       hide_clip="false"
       message="Use fill-rule evenodd on &lt;b&gt;fill and stroke&lt;/b&gt; dialog if no flatten result after convert clip to paths." />
    <clipPath
       clipPathUnits="userSpaceOnUse"
       id="clipPath1885">
      <path
         d="m 276.90577,86.179442 c -36.9931,0 -67.00638,37.281578 -67.00638,83.233288 v 138.72214 c 0,45.95171 30.01328,83.23329 67.00638,83.23329 36.9931,0 67.00637,-37.28158 67.00637,-83.23329 V 169.41273 c 0,-45.95171 -30.01327,-83.233288 -67.00637,-83.233288 z M 187.56394,273.45433 c 0,-11.53127 -7.46842,-20.80832 -16.7516,-20.80832 -9.28318,0 -16.75159,9.27705 -16.75159,20.80832 v 34.68054 c 0,77.25089 46.20648,141.06308 106.09343,151.20714 v 29.13165 h -33.50319 c -9.28317,0 -16.7516,9.27704 -16.7516,20.80832 0,11.53128 7.46843,20.80832 16.7516,20.80832 h 50.25478 50.25478 c 9.28317,0 16.75159,-9.27704 16.75159,-20.80832 0,-11.53128 -7.46842,-20.80832 -16.75159,-20.80832 h -33.50319 v -29.13165 c 59.88695,-10.14406 106.09343,-73.95625 106.09343,-151.20714 v -34.68054 c 0,-11.53127 -7.46842,-20.80832 -16.7516,-20.80832 -9.28317,0 -16.75159,9.27705 -16.75159,20.80832 v 34.68054 c 0,61.29785 -39.99443,110.97772 -89.34183,110.97772 -49.34741,0 -89.34183,-49.67987 -89.34183,-110.97772 z"
         id="path1887"
         style="display:none;stroke-width:0.777921" />
      <path
         id="lpe_path-effect1889"
         style="stroke-width:0.777921"
         class="powerclip"
         d="M -1.9798894,-1.021668 H 603.41824 V 602.70178 H -1.9798894 Z M 276.90577,86.179442 c -36.9931,0 -67.00638,37.281578 -67.00638,83.233288 v 138.72214 c 0,45.95171 30.01328,83.23329 67.00638,83.23329 36.9931,0 67.00637,-37.28158 67.00637,-83.23329 V 169.41273 c 0,-45.95171 -30.01327,-83.233288 -67.00637,-83.233288 z M 187.56394,273.45433 c 0,-11.53127 -7.46842,-20.80832 -16.7516,-20.80832 -9.28318,0 -16.75159,9.27705 -16.75159,20.80832 v 34.68054 c 0,77.25089 46.20648,141.06308 106.09343,151.20714 v 29.13165 h -33.50319 c -9.28317,0 -16.7516,9.27704 -16.7516,20.80832 0,11.53128 7.46843,20.80832 16.7516,20.80832 h 50.25478 50.25478 c 9.28317,0 16.75159,-9.27704 16.75159,-20.80832 0,-11.53128 -7.46842,-20.80832 -16.75159,-20.80832 h -33.50319 v -29.13165 c 59.88695,-10.14406 106.09343,-73.95625 106.09343,-151.20714 v -34.68054 c 0,-11.53127 -7.46842,-20.80832 -16.7516,-20.80832 -9.28317,0 -16.75159,9.27705 -16.75159,20.80832 v 34.68054 c 0,61.29785 -39.99443,110.97772 -89.34183,110.97772 -49.34741,0 -89.34183,-49.67987 -89.34183,-110.97772 z" />
    </clipPath>
    <clipPath
       clipPathUnits="userSpaceOnUse"
       id="clipPath1885-6">
      <path
         d="m 276.90577,86.179442 c -36.9931,0 -67.00638,37.281578 -67.00638,83.233288 v 138.72214 c 0,45.95171 30.01328,83.23329 67.00638,83.23329 36.9931,0 67.00637,-37.28158 67.00637,-83.23329 V 169.41273 c 0,-45.95171 -30.01327,-83.233288 -67.00637,-83.233288 z M 187.56394,273.45433 c 0,-11.53127 -7.46842,-20.80832 -16.7516,-20.80832 -9.28318,0 -16.75159,9.27705 -16.75159,20.80832 v 34.68054 c 0,77.25089 46.20648,141.06308 106.09343,151.20714 v 29.13165 h -33.50319 c -9.28317,0 -16.7516,9.27704 -16.7516,20.80832 0,11.53128 7.46843,20.80832 16.7516,20.80832 h 50.25478 50.25478 c 9.28317,0 16.75159,-9.27704 16.75159,-20.80832 0,-11.53128 -7.46842,-20.80832 -16.75159,-20.80832 h -33.50319 v -29.13165 c 59.88695,-10.14406 106.09343,-73.95625 106.09343,-151.20714 v -34.68054 c 0,-11.53127 -7.46842,-20.80832 -16.7516,-20.80832 -9.28317,0 -16.75159,9.27705 -16.75159,20.80832 v 34.68054 c 0,61.29785 -39.99443,110.97772 -89.34183,110.97772 -49.34741,0 -89.34183,-49.67987 -89.34183,-110.97772 z"
         id="path1887-5"
         style="display:none;stroke-width:0.777921" />
      <path
         id="lpe_path-effect1889-3"
         style="stroke-width:0.777921"
         class="powerclip"
         d="M -1.9798894,-1.021668 H 603.41824 V 602.70178 H -1.9798894 Z M 276.90577,86.179442 c -36.9931,0 -67.00638,37.281578 -67.00638,83.233288 v 138.72214 c 0,45.95171 30.01328,83.23329 67.00638,83.23329 36.9931,0 67.00637,-37.28158 67.00637,-83.23329 V 169.41273 c 0,-45.95171 -30.01327,-83.233288 -67.00637,-83.233288 z M 187.56394,273.45433 c 0,-11.53127 -7.46842,-20.80832 -16.7516,-20.80832 -9.28318,0 -16.75159,9.27705 -16.75159,20.80832 v 34.68054 c 0,77.25089 46.20648,141.06308 106.09343,151.20714 v 29.13165 h -33.50319 c -9.28317,0 -16.7516,9.27704 -16.7516,20.80832 0,11.53128 7.46843,20.80832 16.7516,20.80832 h 50.25478 50.25478 c 9.28317,0 16.75159,-9.27704 16.75159,-20.80832 0,-11.53128 -7.46842,-20.80832 -16.75159,-20.80832 h -33.50319 v -29.13165 c 59.88695,-10.14406 106.09343,-73.95625 106.09343,-151.20714 v -34.68054 c 0,-11.53127 -7.46842,-20.80832 -16.7516,-20.80832 -9.28317,0 -16.75159,9.27705 -16.75159,20.80832 v 34.68054 c 0,61.29785 -39.99443,110.97772 -89.34183,110.97772 -49.34741,0 -89.34183,-49.67987 -89.34183,-110.97772 z" />
    </clipPath>
    <clipPath
       clipPathUnits="userSpaceOnUse"
       id="clipPath1885-6-4">
      <path
         d="m 276.90577,86.179442 c -36.9931,0 -67.00638,37.281578 -67.00638,83.233288 v 138.72214 c 0,45.95171 30.01328,83.23329 67.00638,83.23329 36.9931,0 67.00637,-37.28158 67.00637,-83.23329 V 169.41273 c 0,-45.95171 -30.01327,-83.233288 -67.00637,-83.233288 z M 187.56394,273.45433 c 0,-11.53127 -7.46842,-20.80832 -16.7516,-20.80832 -9.28318,0 -16.75159,9.27705 -16.75159,20.80832 v 34.68054 c 0,77.25089 46.20648,141.06308 106.09343,151.20714 v 29.13165 h -33.50319 c -9.28317,0 -16.7516,9.27704 -16.7516,20.80832 0,11.53128 7.46843,20.80832 16.7516,20.80832 h 50.25478 50.25478 c 9.28317,0 16.75159,-9.27704 16.75159,-20.80832 0,-11.53128 -7.46842,-20.80832 -16.75159,-20.80832 h -33.50319 v -29.13165 c 59.88695,-10.14406 106.09343,-73.95625 106.09343,-151.20714 v -34.68054 c 0,-11.53127 -7.46842,-20.80832 -16.7516,-20.80832 -9.28317,0 -16.75159,9.27705 -16.75159,20.80832 v 34.68054 c 0,61.29785 -39.99443,110.97772 -89.34183,110.97772 -49.34741,0 -89.34183,-49.67987 -89.34183,-110.97772 z"
         id="path1887-5-2"
         style="display:none;stroke-width:0.777921" />
      <path
         id="lpe_path-effect1889-3-1"
         style="stroke-width:0.777921"
         class="powerclip"
         d="M -1.9798894,-1.021668 H 603.41824 V 602.70178 H -1.9798894 Z M 276.90577,86.179442 c -36.9931,0 -67.00638,37.281578 -67.00638,83.233288 v 138.72214 c 0,45.95171 30.01328,83.23329 67.00638,83.23329 36.9931,0 67.00637,-37.28158 67.00637,-83.23329 V 169.41273 c 0,-45.95171 -30.01327,-83.233288 -67.00637,-83.233288 z M 187.56394,273.45433 c 0,-11.53127 -7.46842,-20.80832 -16.7516,-20.80832 -9.28318,0 -16.75159,9.27705 -16.75159,20.80832 v 34.68054 c 0,77.25089 46.20648,141.06308 106.09343,151.20714 v 29.13165 h -33.50319 c -9.28317,0 -16.7516,9.27704 -16.7516,20.80832 0,11.53128 7.46843,20.80832 16.7516,20.80832 h 50.25478 50.25478 c 9.28317,0 16.75159,-9.27704 16.75159,-20.80832 0,-11.53128 -7.46842,-20.80832 -16.75159,-20.80832 h -33.50319 v -29.13165 c 59.88695,-10.14406 106.09343,-73.95625 106.09343,-151.20714 v -34.68054 c 0,-11.53127 -7.46842,-20.80832 -16.7516,-20.80832 -9.28317,0 -16.75159,9.27705 -16.75159,20.80832 v 34.68054 c 0,61.29785 -39.99443,110.97772 -89.34183,110.97772 -49.34741,0 -89.34183,-49.67987 -89.34183,-110.97772 z" />
    </clipPath>
    <clipPath
       clipPathUnits="userSpaceOnUse"
       id="clipath_lpe_path-effect1889">
      <path
         d="m 276.90577,86.179442 c -36.9931,0 -67.00638,37.281578 -67.00638,83.233288 v 138.72214 c 0,45.95171 30.01328,83.23329 67.00638,83.23329 36.9931,0 67.00637,-37.28158 67.00637,-83.23329 V 169.41273 c 0,-45.95171 -30.01327,-83.233288 -67.00637,-83.233288 z M 187.56394,273.45433 c 0,-11.53127 -7.46842,-20.80832 -16.7516,-20.80832 -9.28318,0 -16.75159,9.27705 -16.75159,20.80832 v 34.68054 c 0,77.25089 46.20648,141.06308 106.09343,151.20714 v 29.13165 h -33.50319 c -9.28317,0 -16.7516,9.27704 -16.7516,20.80832 0,11.53128 7.46843,20.80832 16.7516,20.80832 h 50.25478 50.25478 c 9.28317,0 16.75159,-9.27704 16.75159,-20.80832 0,-11.53128 -7.46842,-20.80832 -16.75159,-20.80832 h -33.50319 v -29.13165 c 59.88695,-10.14406 106.09343,-73.95625 106.09343,-151.20714 v -34.68054 c 0,-11.53127 -7.46842,-20.80832 -16.7516,-20.80832 -9.28317,0 -16.75159,9.27705 -16.75159,20.80832 v 34.68054 c 0,61.29785 -39.99443,110.97772 -89.34183,110.97772 -49.34741,0 -89.34183,-49.67987 -89.34183,-110.97772 z"
         id="path2266"
         style="display:none;stroke-width:0.777921" />
      <path
         id="lpe_path-effect1889-9"
         style="stroke-width:0.777921"
         class="powerclip"
         d="M -1.9798894,-1.021668 H 603.41824 V 602.70178 H -1.9798894 Z M 276.90577,86.179442 c -36.9931,0 -67.00638,37.281578 -67.00638,83.233288 v 138.72214 c 0,45.95171 30.01328,83.23329 67.00638,83.23329 36.9931,0 67.00637,-37.28158 67.00637,-83.23329 V 169.41273 c 0,-45.95171 -30.01327,-83.233288 -67.00637,-83.233288 z M 187.56394,273.45433 c 0,-11.53127 -7.46842,-20.80832 -16.7516,-20.80832 -9.28318,0 -16.75159,9.27705 -16.75159,20.80832 v 34.68054 c 0,77.25089 46.20648,141.06308 106.09343,151.20714 v 29.13165 h -33.50319 c -9.28317,0 -16.7516,9.27704 -16.7516,20.80832 0,11.53128 7.46843,20.80832 16.7516,20.80832 h 50.25478 50.25478 c 9.28317,0 16.75159,-9.27704 16.75159,-20.80832 0,-11.53128 -7.46842,-20.80832 -16.75159,-20.80832 h -33.50319 v -29.13165 c 59.88695,-10.14406 106.09343,-73.95625 106.09343,-151.20714 v -34.68054 c 0,-11.53127 -7.46842,-20.80832 -16.7516,-20.80832 -9.28317,0 -16.75159,9.27705 -16.75159,20.80832 v 34.68054 c 0,61.29785 -39.99443,110.97772 -89.34183,110.97772 -49.34741,0 -89.34183,-49.67987 -89.34183,-110.97772 z" />
    </clipPath>
    <clipPath
       clipPathUnits="userSpaceOnUse"
       id="clipPath2501">
      <g
         id="g2509"
         transform="translate(2.87052,-1.92063)">
        <ellipse
           style="fill:#6c757d;fill-opacity:1;stroke:#6c757d;stroke-width:0"
           id="ellipse2503"
           inkscape:export-filename="/Users/chip/Library/CloudStorage/GoogleDrive-chipcleary@gmail.com/My Drive/Development/Projects/jot-myself-landing-page/images/jot-try-2.png"
           inkscape:export-xdpi="91.260002"
           inkscape:export-ydpi="91.260002"
           clip-path="url(#clipath_lpe_path-effect1889)"
           inkscape:path-effect="#path-effect1889"
           sodipodi:type="arc"
           sodipodi:cx="300.71918"
           sodipodi:cy="300.84006"
           sodipodi:rx="297.69907"
           sodipodi:ry="296.86172"
           d="M 598.41824,300.84006 A 297.69907,296.86172 0 0 1 300.71918,597.70178 297.69907,296.86172 0 0 1 3.0201111,300.84006 297.69907,296.86172 0 0 1 300.71918,3.9783325 297.69907,296.86172 0 0 1 598.41824,300.84006 Z" />
        <g
           id="g2507">
          <path
             d="m 440.4319,462.81879 c 44.73956,0 80.99949,-36.25993 80.99949,-80.99949 0,-44.73956 -36.25993,-80.99949 -80.99949,-80.99949 -44.73956,0 -80.99949,36.25993 -80.99949,80.99949 0,44.73956 36.25993,80.99949 80.99949,80.99949 z m -7.5937,-53.15591 V 389.413 h -20.24988 c -4.20817,0 -7.5937,-3.38552 -7.5937,-7.5937 0,-4.20818 3.38553,-7.5937 7.5937,-7.5937 h 20.24988 v -20.24987 c 0,-4.20818 3.38552,-7.5937 7.5937,-7.5937 4.20818,0 7.5937,3.38552 7.5937,7.5937 v 20.24987 h 20.24988 c 4.20817,0 7.5937,3.38552 7.5937,7.5937 0,4.20818 -3.38553,7.5937 -7.5937,7.5937 H 448.0256 v 20.24988 c 0,4.20817 -3.38552,7.5937 -7.5937,7.5937 -4.20818,0 -7.5937,-3.38553 -7.5937,-7.5937 z"
             id="path2505"
             style="stroke-width:0.316404" />
        </g>
      </g>
    </clipPath>
    <clipPath
       clipPathUnits="userSpaceOnUse"
       id="clipPath1839">
      <path
         id="path1841"
         style="display:none;stroke-width:0.844603"
         d="m 283.26015,65.736451 c -42.68074,0 -77.30851,38.090549 -77.30851,85.039369 V 292.5081 c 0,46.94882 34.62777,85.03937 77.30851,85.03937 42.68075,0 77.30852,-38.09055 77.30852,-85.03937 V 150.77582 c 0,-46.94882 -34.62777,-85.039369 -77.30852,-85.039369 z M 180.18213,257.07503 c 0,-11.7815 -8.61668,-21.25985 -19.32713,-21.25985 -10.71045,0 -19.32713,9.47835 -19.32713,21.25985 v 35.43307 c 0,78.92717 53.31067,144.12402 122.40516,154.48819 v 29.76378 h -38.65426 c -10.71045,0 -19.32713,9.47835 -19.32713,21.25985 0,11.78148 8.61668,21.25984 19.32713,21.25984 h 57.98138 57.9814 c 10.71045,0 19.32712,-9.47836 19.32712,-21.25984 0,-11.7815 -8.61667,-21.25985 -19.32712,-21.25985 H 302.58729 V 446.99629 C 371.68178,436.63212 424.99244,371.43527 424.99244,292.5081 v -35.43307 c 0,-11.7815 -8.61668,-21.25985 -19.32714,-21.25985 -10.71045,0 -19.32712,9.47835 -19.32712,21.25985 v 35.43307 c 0,62.62795 -46.14353,113.38583 -103.07803,113.38583 -56.93449,0 -103.07802,-50.75788 -103.07802,-113.38583 z m 267.54373,190.34831 c 41.75196,0 75.59054,-33.83858 75.59054,-75.59054 0,-41.75197 -33.83858,-75.59056 -75.59054,-75.59056 -41.75197,0 -75.59056,33.83859 -75.59056,75.59056 0,41.75196 33.83859,75.59054 75.59056,75.59054 z m -7.08662,-49.6063 V 378.9194 h -18.89763 c -3.92716,0 -7.08663,-3.15944 -7.08663,-7.0866 0,-3.92718 3.15947,-7.08662 7.08663,-7.08662 h 18.89763 v -18.89763 c 0,-3.92716 3.15944,-7.08663 7.08662,-7.08663 3.92716,0 7.0866,3.15947 7.0866,7.08663 v 18.89763 h 18.89764 c 3.92716,0 7.08662,3.15944 7.08662,7.08662 0,3.92716 -3.15946,7.0866 -7.08662,7.0866 h -18.89764 v 18.89764 c 0,3.92716 -3.15944,7.08662 -7.0866,7.08662 -3.92718,0 -7.08662,-3.15946 -7.08662,-7.08662 z" />
      <path
         id="lpe_path-effect1843"
         style="stroke-width:0.844603"
         class="powerclip"
         d="M 2.559051,2.559051 H 594.60629 V 594.60629 H 2.559051 Z m 280.701099,63.1774 c -42.68074,0 -77.30851,38.090549 -77.30851,85.039369 V 292.5081 c 0,46.94882 34.62777,85.03937 77.30851,85.03937 42.68075,0 77.30852,-38.09055 77.30852,-85.03937 V 150.77582 c 0,-46.94882 -34.62777,-85.039369 -77.30852,-85.039369 z M 180.18213,257.07503 c 0,-11.7815 -8.61668,-21.25985 -19.32713,-21.25985 -10.71045,0 -19.32713,9.47835 -19.32713,21.25985 v 35.43307 c 0,78.92717 53.31067,144.12402 122.40516,154.48819 v 29.76378 h -38.65426 c -10.71045,0 -19.32713,9.47835 -19.32713,21.25985 0,11.78148 8.61668,21.25984 19.32713,21.25984 h 57.98138 57.9814 c 10.71045,0 19.32712,-9.47836 19.32712,-21.25984 0,-11.7815 -8.61667,-21.25985 -19.32712,-21.25985 H 302.58729 V 446.99629 C 371.68178,436.63212 424.99244,371.43527 424.99244,292.5081 v -35.43307 c 0,-11.7815 -8.61668,-21.25985 -19.32714,-21.25985 -10.71045,0 -19.32712,9.47835 -19.32712,21.25985 v 35.43307 c 0,62.62795 -46.14353,113.38583 -103.07803,113.38583 -56.93449,0 -103.07802,-50.75788 -103.07802,-113.38583 z m 267.54373,190.34831 c 41.75196,0 75.59054,-33.83858 75.59054,-75.59054 0,-41.75197 -33.83858,-75.59056 -75.59054,-75.59056 -41.75197,0 -75.59056,33.83859 -75.59056,75.59056 0,41.75196 33.83859,75.59054 75.59056,75.59054 z m -7.08662,-49.6063 c 0,3.92716 3.15944,7.08662 7.08662,7.08662 3.92716,0 7.0866,-3.15946 7.0866,-7.08662 V 378.9194 h 18.89764 c 3.92716,0 7.08662,-3.15944 7.08662,-7.0866 0,-3.92718 -3.15946,-7.08662 -7.08662,-7.08662 h -18.89764 v -18.89763 c 0,-3.92716 -3.15944,-7.08663 -7.0866,-7.08663 -3.92718,0 -7.08662,3.15947 -7.08662,7.08663 v 18.89763 h -18.89763 c -3.92716,0 -7.08663,3.15944 -7.08663,7.08662 0,3.92716 3.15947,7.0866 7.08663,7.0866 h 18.89763 z" />
    </clipPath>
  </defs>
  <sodipodi:namedview
     id="namedview868"
     pagecolor="#ffffff"
     bordercolor="#666666"
     borderopacity="1.0"
     inkscape:pageshadow="2"
     inkscape:pageopacity="0.0"
     inkscape:pagecheckerboard="0"
     showgrid="false"
     inkscape:zoom="0.59714111"
     inkscape:cx="246.17297"
     inkscape:cy="256.22085"
     inkscape:window-width="1312"
     inkscape:window-height="762"
     inkscape:window-x="0"
     inkscape:window-y="25"
     inkscape:window-maximized="0"
     inkscape:current-layer="layer1" />
  <g
     inkscape:groupmode="layer"
     id="layer1"
     inkscape:label="test">
    <path
       style="display:inline;fill:#6c757d;fill-opacity:1;stroke:#6c757d;stroke-width:0"
       id="path1057-4"
       clip-path="url(#clipPath1839)"
       inkscape:path-effect="#path-effect1843"
       sodipodi:type="arc"
       sodipodi:cx="298.58267"
       sodipodi:cy="298.58267"
       sodipodi:rx="291.02362"
       sodipodi:ry="291.02362"
       d="M 589.60629,298.58267 A 291.02362,291.02362 0 0 1 298.58267,589.60629 291.02362,291.02362 0 0 1 7.5590515,298.58267 291.02362,291.02362 0 0 1 298.58267,7.5590515 291.02362,291.02362 0 0 1 589.60629,298.58267 Z" />
  </g>
  <g
     inkscape:groupmode="layer"
     id="layer2"
     inkscape:label="circle"
     style="display:none">
    <circle
       style="fill:#6c757d;fill-opacity:1;stroke:#6c757d;stroke-width:0"
       id="path1057"
       cx="298.08701"
       cy="303.11093"
       r="291.02362" />
  </g>
  <g
     inkscape:groupmode="layer"
     id="layer3"
     inkscape:label="symbols"
     style="display:none">
    <path
       d="m 443.48087,461.27744 c 41.75196,0 75.59054,-33.83858 75.59054,-75.59054 0,-41.75197 -33.83858,-75.59056 -75.59054,-75.59056 -41.75197,0 -75.59056,33.83859 -75.59056,75.59056 0,41.75196 33.83859,75.59054 75.59056,75.59054 z m -7.08662,-49.6063 V 392.7735 h -18.89763 c -3.92716,0 -7.08663,-3.15944 -7.08663,-7.0866 0,-3.92718 3.15947,-7.08662 7.08663,-7.08662 h 18.89763 v -18.89763 c 0,-3.92716 3.15944,-7.08663 7.08662,-7.08663 3.92716,0 7.0866,3.15947 7.0866,7.08663 v 18.89763 h 18.89764 c 3.92716,0 7.08662,3.15944 7.08662,7.08662 0,3.92716 -3.15946,7.0866 -7.08662,7.0866 h -18.89764 v 18.89764 c 0,3.92716 -3.15944,7.08662 -7.0866,7.08662 -3.92718,0 -7.08662,-3.15946 -7.08662,-7.08662 z"
       id="path1191"
       style="stroke-width:0.295277" />
    <path
       d="m 279.01516,79.590551 c -42.68074,0 -77.30851,38.090549 -77.30851,85.039369 V 306.3622 c 0,46.94882 34.62777,85.03937 77.30851,85.03937 42.68075,0 77.30852,-38.09055 77.30852,-85.03937 V 164.62992 c 0,-46.94882 -34.62777,-85.039369 -77.30852,-85.039369 z M 175.93714,270.92913 c 0,-11.7815 -8.61668,-21.25985 -19.32713,-21.25985 -10.71045,0 -19.32713,9.47835 -19.32713,21.25985 v 35.43307 c 0,78.92717 53.31067,144.12402 122.40516,154.48819 v 29.76378 h -38.65426 c -10.71045,0 -19.32713,9.47835 -19.32713,21.25985 0,11.78148 8.61668,21.25984 19.32713,21.25984 h 57.98138 57.9814 c 10.71045,0 19.32712,-9.47836 19.32712,-21.25984 0,-11.7815 -8.61667,-21.25985 -19.32712,-21.25985 H 298.3423 V 460.85039 C 367.43679,450.48622 420.74745,385.28937 420.74745,306.3622 v -35.43307 c 0,-11.7815 -8.61668,-21.25985 -19.32714,-21.25985 -10.71045,0 -19.32712,9.47835 -19.32712,21.25985 v 35.43307 c 0,62.62795 -46.14353,113.38583 -103.07803,113.38583 -56.93449,0 -103.07802,-50.75788 -103.07802,-113.38583 z"
       id="path1412"
       style="stroke-width:0.844603" />
  </g>
  <!--! Font Awesome Pro 6.2.1 by @fontawesome - https://fontawesome.com License - https://fontawesome.com/license (Commercial License) Copyright 2022 Fonticons, Inc. -->
</svg>
